<svg width="60" height="93" viewBox="0 0 60 93" fill="none" xmlns="http://www.w3.org/2000/svg">
<path d="M5.625 65.1C5.625 66.3828 6.46545 67.425 7.5 67.425H52.5C53.5345 67.425 54.375 66.3828 54.375 65.1V34.875H5.625V65.1ZM19.2993 49.5062C20.0317 48.5979 21.2183 48.5979 21.9507 49.5062L26.1584 54.7238L37.9633 37.9947C38.6462 37.0252 39.8328 36.9275 40.6091 37.7744C41.3892 38.6213 41.4679 40.0904 40.7867 41.0553L40.624 41.2861L27.6617 59.6553C27.3193 60.1412 26.8304 60.4273 26.3123 60.4477C26.2921 60.45 26.2701 60.45 26.25 60.45C25.7538 60.45 25.2759 60.2048 24.9243 59.7688L19.3961 52.9139L19.2993 52.7938C18.5669 51.8856 18.5669 50.4144 19.2993 49.5062Z" fill="#994328"/>
<path d="M52.875 28H47.25V30.325C47.25 31.6101 46.4114 32.65 45.375 32.65C44.3386 32.65 43.5 31.6101 43.5 30.325V28H17.25V30.325C17.25 31.6101 16.4114 32.65 15.375 32.65C14.3386 32.65 13.5 31.6101 13.5 30.325V28H7.875C6.84045 28 6 29.0422 6 30.325V34.975H54.75V30.325C54.75 29.0422 53.9095 28 52.875 28Z" fill="#994328"/>
</svg>
