<svg width="30" height="22" viewBox="0 0 30 22" fill="none" xmlns="http://www.w3.org/2000/svg">
<path fill-rule="evenodd" clip-rule="evenodd" d="M14.9927 21.2963L14.2327 20.0356C17.1691 19.6267 19.4836 18.9452 21.1764 17.957C22.8 16.9689 23.9745 15.5719 24.6655 13.8341C24.1473 14.0385 23.5945 14.2089 23.0418 14.3452C22.4891 14.4474 21.9018 14.5156 21.3145 14.5156C19.9327 14.5156 18.6891 14.2089 17.5836 13.6637C16.4782 13.1185 15.5455 12.2667 14.7855 11.1763C13.8182 14.3793 12.0564 16.8667 9.67273 18.6385C7.28909 20.4104 4.35273 21.2963 0.967273 21.2963H0.863637L0.103636 20.0356C3.07455 19.6267 5.42364 18.9452 7.04727 17.957C8.67091 16.9689 9.88 15.5719 10.5364 13.8341C10.0182 14.0385 9.5 14.2089 8.94727 14.3452C8.39455 14.4474 7.84182 14.5156 7.25455 14.5156C5.11273 14.5156 3.35091 13.8681 2.00364 12.5733C0.656363 11.2785 0 9.57481 0 7.4963C0 5.28148 0.725455 3.47555 2.03818 2.07852C3.45455 0.681481 5.21636 0 7.42727 0C9.05091 0 10.4673 0.34074 11.6418 1.0563C12.8164 1.73778 13.7491 2.79407 14.4745 4.15704C15.2345 2.79407 16.2364 1.77185 17.4109 1.0563C18.5855 0.34074 20.0018 0 21.5218 0C23.8364 0 25.7018 0.749629 27.1527 2.24889C28.5691 3.71407 29.3291 5.62222 29.3291 7.93926C29.3291 10.0859 28.8109 12.0622 27.7745 13.9704C26.7727 15.8785 25.3564 17.5141 23.56 18.7407C22.3855 19.6267 21.0382 20.2741 19.6564 20.6489C18.24 21.0919 16.6509 21.2963 14.9927 21.2963Z" fill="#C4A090"/>
</svg>
