<svg width="70" height="86" viewBox="0 0 70 86" fill="none" xmlns="http://www.w3.org/2000/svg">
<path fill-rule="evenodd" clip-rule="evenodd" d="M26.0592 49.2807C26.7254 49.9476 26.7254 51.04 26.0592 51.7069L15.01 62.7678C13.7647 64.0144 11.7263 64.0144 10.4809 62.7678C9.23553 61.5211 9.23553 59.4805 10.4809 58.2338L21.5301 47.173C22.1963 46.506 23.2875 46.506 23.9537 47.173L26.0592 49.2807ZM51.1058 22.0996C48.6325 19.6236 45.3835 18.3844 42.1318 18.3844C38.8829 18.3844 35.6314 19.6236 33.1578 22.0996C28.2111 27.0515 28.2111 35.1117 33.1578 40.0659C38.1046 45.0179 46.1562 45.0179 51.1052 40.0659C56.0519 35.114 56.0526 27.0538 51.1058 22.0996ZM55.0881 44.0525C48.3668 50.7809 37.7198 51.1892 30.5232 45.2743L27.7789 48.0216C27.7092 47.9394 27.6372 47.8598 27.5576 47.7802L25.4521 45.6725C25.3751 45.5953 25.2955 45.5207 25.211 45.451L27.9553 42.7038C22.0466 35.4995 22.4543 24.8419 29.1759 18.1129C36.3299 10.9513 47.9314 10.9513 55.088 18.1129C62.242 25.2744 62.2421 36.8884 55.0881 44.0525ZM52.6048 20.5993C46.8303 14.8187 37.4339 14.8187 31.6595 20.5993C25.885 26.3799 25.885 35.7863 31.6595 41.5668C34.5456 44.4584 38.3388 45.9016 42.1347 45.9016C45.928 45.9016 49.7214 44.4559 52.6073 41.5668C58.3818 35.7862 58.3818 26.3798 52.6073 20.5993H52.6048Z" fill="#994328"/>
</svg>
