<svg width="19" height="19" viewBox="0 0 19 19" fill="none" xmlns="http://www.w3.org/2000/svg">
<path fill-rule="evenodd" clip-rule="evenodd" d="M9.12105 0C9.44035 0 9.72308 0.206516 9.82012 0.510749L11.739 6.5233H17.5081C17.8226 6.5233 18.1021 6.7237 18.2031 7.02156C18.3041 7.31942 18.204 7.64853 17.9543 7.83976L13.3482 11.3682L15.2696 17.2813C15.3679 17.5836 15.2602 17.9148 15.0031 18.1018C14.7459 18.2887 14.3976 18.2887 14.1404 18.1018L9.12105 14.4555L4.10165 18.1018C3.84444 18.2887 3.49616 18.2887 3.23895 18.1018C2.98175 17.9148 2.87413 17.5836 2.97239 17.2813L4.89382 11.3682L0.287646 7.83976C0.0379704 7.64853 -0.0620758 7.31942 0.0388931 7.02156C0.139865 6.7237 0.419407 6.5233 0.733915 6.5233H6.50302L8.42191 0.510749C8.51894 0.206516 8.80167 0 9.12105 0ZM9.12105 3.14764L7.73827 7.48029C7.64115 7.78448 7.3585 7.99106 7.03915 7.99106H2.89877L6.19847 10.5187C6.44544 10.7078 6.54629 11.0322 6.45015 11.328L5.06624 15.5869L8.6897 12.9547C8.94685 12.7678 9.29517 12.7678 9.55232 12.9547L13.1758 15.5869L11.7919 11.328C11.6957 11.0322 11.7966 10.7078 12.0435 10.5187L15.3433 7.99106H11.2029C10.8835 7.99106 10.6009 7.78448 10.5037 7.48029L9.12105 3.14764Z" fill="#994328"/>
<path d="M9.22579 2.51611L10.9206 7.73188H16.4047L11.9679 10.9555L13.6626 16.1713L9.22579 12.9477L4.78899 16.1713L6.48371 10.9555L2.04688 7.73188H7.5311L9.22579 2.51611Z" fill="#994328"/>
</svg>
