<svg width="62" height="75" viewBox="0 0 62 75" fill="none" xmlns="http://www.w3.org/2000/svg">
<path fill-rule="evenodd" clip-rule="evenodd" d="M58.6101 33.3333C58.6101 25.8183 55.5189 19.0149 50.523 14.0905C45.5272 9.16605 38.6252 6.11938 31.0004 6.11938C23.3755 6.11938 16.4738 9.16627 11.4777 14.0905C6.482 19.0146 3.39062 25.8177 3.39062 33.3333C3.39062 40.8488 6.48183 47.6516 11.4777 52.5761C16.4734 57.5001 23.3755 60.5472 31.0004 60.5472C38.6252 60.5472 45.527 57.5003 50.523 52.5761C55.5191 47.6518 58.6101 40.8488 58.6101 33.3333ZM29.2283 41.8511C30.7122 37.0138 34.4397 28.3461 43.0222 23.1399C43.6298 22.771 44.4268 22.9577 44.8011 23.5588C45.1754 24.1577 44.986 24.9433 44.3762 25.3144C33.4185 31.9617 31.0693 44.8133 30.9103 45.7422C30.8531 46.2197 30.5206 46.645 30.0253 46.8034C29.3471 47.0205 28.6184 46.6559 28.396 45.9874C26.3727 39.9241 18.8672 35.5641 18.8452 35.5536C18.2331 35.1933 18.0328 34.4121 18.4004 33.8109C18.7681 33.2098 19.5586 33.0102 20.1684 33.3726C20.1882 33.3834 25.9389 36.7232 29.2215 41.8559L29.2283 41.8511Z" fill="#994328"/>
</svg>
